<?xml version="1.0" encoding="UTF-8"?>
<svg version="1.1" xmlns="http://www.w3.org/2000/svg" width="2048" height="2048">
<path d="M0 0 C675.84 0 1351.68 0 2048 0 C2048 675.84 2048 1351.68 2048 2048 C1372.16 2048 696.32 2048 0 2048 C0 1372.16 0 696.32 0 0 Z " fill="#000000" transform="translate(0,0)"/>
<path d="M0 0 C200.31 0 400.62 0 607 0 C607 246.84 607 493.68 607 748 C507.01 748 407.02 748 304 748 C304 601.48 304 454.96 304 304 C203.68 304 103.36 304 0 304 C0 203.68 0 103.36 0 0 Z " fill="#FEFEFE" transform="translate(304,680)"/>
<path d="M0 0 C114.84 0 229.68 0 348 0 C346.01745961 5.94762117 343.99077735 11.63773269 341.515625 17.36328125 C341.18359573 18.13982056 340.85156647 18.91635986 340.50947571 19.71643066 C339.79703269 21.3820324 339.08306936 23.04698454 338.3677063 24.71133423 C336.43896381 29.19997221 334.52276275 33.69396277 332.60546875 38.1875 C332.21515976 39.10159134 331.82485077 40.01568268 331.42271423 40.95747375 C327.754725 49.5560005 324.1484093 58.17948078 320.5625 66.8125 C319.95193322 68.28158754 319.34133727 69.75066296 318.73071289 71.21972656 C317.79580692 73.46898704 316.86090303 75.71824832 315.92619324 77.96759033 C312.03011896 87.33959372 308.10838736 96.7008573 304.1875 106.0625 C303.42585945 107.88126495 302.66422209 109.70003123 301.90258789 111.51879883 C300.36795386 115.18331654 298.83317973 118.84777554 297.29833984 122.51220703 C293.90498923 130.61413952 290.51354669 138.7168707 287.12197876 146.81954956 C285.24806576 151.29639983 283.37402642 155.77319721 281.5 160.25 C280.7499994 162.04166641 279.9999994 163.83333308 279.25 165.625 C256.74999998 219.37500004 256.74999998 219.37500004 255.62498474 222.06253052 C254.87502997 223.8540931 254.12508083 225.64565804 253.37513733 227.43722534 C251.49949159 231.91800387 249.62374776 236.39874129 247.74780273 240.87939453 C244.38041992 248.92257989 241.01370328 256.9660403 237.65071106 265.01106262 C229.57290724 284.33474628 221.46850629 303.64667927 213.3125 322.9375 C206.73398893 338.49743744 200.20090843 354.07531345 193.71401978 369.67364502 C193.411362 370.40138123 193.10870422 371.12911743 192.796875 371.87890625 C192.34059219 372.97606964 192.34059219 372.97606964 191.87509155 374.09539795 C187.99392886 383.42391091 184.09038723 392.74306063 180.1875 402.0625 C179.81084198 402.9619635 179.43418396 403.861427 179.04611206 404.78814697 C177.13036297 409.36290696 175.21441026 413.93758162 173.29833984 418.51220703 C169.90498923 426.61413952 166.51354669 434.7168707 163.12197876 442.81954956 C161.24806576 447.29639983 159.37402642 451.77319721 157.5 456.25 C156.7499994 458.04166641 155.9999994 459.83333308 155.25 461.625 C132.74999997 515.37500007 132.74999997 515.37500007 131.62498474 518.06253052 C130.87502997 519.8540931 130.12508083 521.64565804 129.37513733 523.43722534 C127.49949159 527.91800387 125.62374776 532.39874129 123.74780273 536.87939453 C120.38041992 544.92257989 117.01370328 552.9660403 113.65071106 561.01106262 C105.57290724 580.33474628 97.46850629 599.64667927 89.3125 618.9375 C82.74152707 634.47960771 76.21599473 650.03966247 69.73612976 665.61994934 C69.43519913 666.34349106 69.13426849 667.06703278 68.82421875 667.8125 C68.37010368 668.90439888 68.37010368 668.90439888 67.90681458 670.01835632 C58.80715863 691.88993777 49.66169562 713.74312989 40.4375 735.5625 C39.99051758 736.62033691 39.54353516 737.67817383 39.08300781 738.76806641 C38.68307617 739.71214355 38.28314453 740.6562207 37.87109375 741.62890625 C37.53005615 742.43400635 37.18901855 743.23910645 36.83764648 744.06860352 C36.26207391 745.39572525 35.64692131 746.70615739 35 748 C-79.84 748 -194.68 748 -313 748 C-312.26458239 743.58749437 -311.68039917 740.79835561 -309.99609375 736.8671875 C-309.38556152 735.42533081 -309.38556152 735.42533081 -308.76269531 733.9543457 C-308.10672363 732.43006958 -308.10672363 732.43006958 -307.4375 730.875 C-306.52344322 728.72060164 -305.61070262 726.56564442 -304.69921875 724.41015625 C-304.24337402 723.3339502 -303.7875293 722.25774414 -303.31787109 721.14892578 C-301.3980501 716.5616988 -299.57215403 711.93917505 -297.75 707.3125 C-295.19356911 700.85132302 -292.45518956 694.52787465 -289.48828125 688.2421875 C-285.67762469 679.94075721 -282.34846888 671.41730576 -278.98828125 662.92578125 C-275.68495151 654.58359406 -272.31296488 646.34364546 -268.48046875 638.2265625 C-266.16002065 633.1693326 -264.08676291 628.01559996 -261.98828125 622.86328125 C-259.67494837 617.18510055 -257.3033828 611.5314344 -254.9375 605.875 C-252.15078292 599.20916441 -249.39524026 592.53574437 -246.75 585.8125 C-244.5425783 580.24138809 -242.09507183 574.82621901 -239.55078125 569.40234375 C-237.21681718 564.28173241 -235.1106375 559.07426978 -232.98828125 553.86328125 C-230.67494837 548.18510055 -228.3033828 542.5314344 -225.9375 536.875 C-223.15078292 530.20916441 -220.39524026 523.53574437 -217.75 516.8125 C-215.5425783 511.24138809 -213.09507183 505.82621901 -210.55078125 500.40234375 C-208.21681718 495.28173241 -206.1106375 490.07426978 -203.98828125 484.86328125 C-201.67494837 479.18510055 -199.3033828 473.5314344 -196.9375 467.875 C-194.15078292 461.20916441 -191.39524026 454.53574437 -188.75 447.8125 C-186.5425783 442.24138809 -184.09507183 436.82621901 -181.55078125 431.40234375 C-179.21681718 426.28173241 -177.1106375 421.07426978 -174.98828125 415.86328125 C-172.67494837 410.18510055 -170.3033828 404.5314344 -167.9375 398.875 C-165.15078292 392.20916441 -162.39524026 385.53574437 -159.75 378.8125 C-157.5425783 373.24138809 -155.09507183 367.82621901 -152.55078125 362.40234375 C-150.21681718 357.28173241 -148.1106375 352.07426978 -145.98828125 346.86328125 C-143.67494837 341.18510055 -141.3033828 335.5314344 -138.9375 329.875 C-136.15078292 323.20916441 -133.39524026 316.53574437 -130.75 309.8125 C-128.5425783 304.24138809 -126.09507183 298.82621901 -123.55078125 293.40234375 C-121.21681718 288.28173241 -119.1106375 283.07426978 -116.98828125 277.86328125 C-114.67494837 272.18510055 -112.3033828 266.5314344 -109.9375 260.875 C-107.15078292 254.20916441 -104.39524026 247.53574437 -101.75 240.8125 C-99.5425783 235.24138809 -97.09507183 229.82621901 -94.55078125 224.40234375 C-92.21681718 219.28173241 -90.1106375 214.07426978 -87.98828125 208.86328125 C-85.67494837 203.18510055 -83.3033828 197.5314344 -80.9375 191.875 C-78.15078292 185.20916441 -75.39524026 178.53574437 -72.75 171.8125 C-70.54473647 166.24683491 -68.09972264 160.83684361 -65.55859375 155.41796875 C-61.7420762 147.04841272 -58.37226459 138.47743988 -54.98828125 129.92578125 C-51.68495151 121.58359406 -48.31296488 113.34364546 -44.48046875 105.2265625 C-42.16002065 100.1693326 -40.08676291 95.01559996 -37.98828125 89.86328125 C-35.67494837 84.18510055 -33.3033828 78.5314344 -30.9375 72.875 C-28.15078292 66.20916441 -25.39524026 59.53574437 -22.75 52.8125 C-20.54664403 47.25164922 -18.10621979 41.84562256 -15.5625 36.43359375 C-13.51550355 31.93531906 -11.64318947 27.3741901 -9.79907227 22.78955078 C-6.69355707 15.11396057 -3.32499261 7.59998311 0 0 Z " fill="#FEFEFE" transform="translate(1443,680)"/>
<path d="M0 0 C0.9295752 0.29898193 0.9295752 0.29898193 1.87792969 0.60400391 C39.31678975 12.92865652 71.12649295 40.26982501 89.26708984 75.27978516 C104.84383209 106.63811897 110.9765657 145.70143106 101.58105469 179.88085938 C101.0085423 181.96884573 100.50437533 184.06470418 100.0078125 186.171875 C93.78980277 211.08795083 79.77617643 232.8122189 62 251 C60.71029297 252.38251953 60.71029297 252.38251953 59.39453125 253.79296875 C41.24051319 272.80507925 17.27171996 285.29379055 -8 292 C-8.81597656 292.22155762 -9.63195313 292.44311523 -10.47265625 292.67138672 C-41.27117932 300.63336624 -77.04004388 298.0210477 -106 285 C-106.65371582 284.70754395 -107.30743164 284.41508789 -107.98095703 284.11376953 C-147.15560575 266.25209648 -174.65711917 234.75971082 -190 195 C-190.61488281 193.46859375 -190.61488281 193.46859375 -191.2421875 191.90625 C-204.22076588 156.89427111 -200.21290272 115.47230011 -185 82 C-179.76690048 70.7908036 -173.92442148 60.53246155 -166 51 C-165.54367187 50.43974121 -165.08734375 49.87948242 -164.6171875 49.30224609 C-139.38172628 18.37362433 -103.72557023 -1.67795029 -63.99609375 -6.68359375 C-42.55504817 -8.63076244 -20.51300172 -6.60473572 0 0 Z " fill="#FEFEFE" transform="translate(1182,680)"/>
</svg>
